HIERARCHY
ROOT Hips
{
	OFFSET 0.000000 0.000000 0.000000
	CHANNELS 6 Xposition Yposition Zposition Zrotation Yrotation Xrotation 
	JOINT LHipJoint
	{
		OFFSET 0.000000 0.000000 0.000000
		CHANNELS 3 Zrotation Yrotation Xrotation
		JOINT LeftUpLeg
		{
			OFFSET 1.363060 -1.794630 0.839290
			CHANNELS 3 Zrotation Yrotation Xrotation
			JOINT LeftLeg
			{
				OFFSET 2.448110 -6.726130 0.000000
				CHANNELS 3 Zrotation Yrotation Xrotation
				JOINT LeftFoot
				{
					OFFSET 2.562200 -7.039590 0.000000
					CHANNELS 3 Zrotation Yrotation Xrotation
					JOINT LeftToeBase
					{
						OFFSET 0.157640 -0.433110 2.322550
						CHANNELS 3 Zrotation Yrotation Xrotation
						End Site
						{
							OFFSET 0.000000 0.000000 0.000000
						}
					}
				}
			}
		}
	}
	JOINT RHipJoint
	{
		OFFSET 0.000000 0.000000 0.000000
		CHANNELS 3 Zrotation Yrotation Xrotation
		JOINT RightUpLeg
		{
			OFFSET -1.305520 -1.794630 0.839290
			CHANNELS 3 Zrotation Yrotation Xrotation
			JOINT RightLeg
			{
				OFFSET -2.542530 -6.985550 0.000000
				CHANNELS 3 Zrotation Yrotation Xrotation
				JOINT RightFoot
				{
					OFFSET -2.568260 -7.056230 0.000000
					CHANNELS 3 Zrotation Yrotation Xrotation
					JOINT RightToeBase
					{
						OFFSET -0.164730 -0.452590 2.363150
						CHANNELS 3 Zrotation Yrotation Xrotation
						End Site
						{
							OFFSET 0.000000 0.000000 0.000000
						}
					}
				}
			}
		}
	}
}
MOTION
Frames: 33
Frame Time: 0.008333
4.012965 17.085683 -2.576206 -170.946110 51.672897 -158.369491 -9.547122 2.430272 1.532584 -26.759884 11.764482 -35.114823 -4.035852 -0.859269 12.845612 1.441523 4.703142 -12.416671 -0.477900 0.000000 -13.679401 9.813096 -5.021149 -2.198400 6.633035 -25.157649 -5.147446 2.206244 -1.710935 22.101323 0.533997 9.156037 18.099119 3.513400 -0.000000 -89.221100
4.128265 17.023567 -2.678969 -170.611323 51.009719 -158.221491 -9.550403 2.420181 1.590085 -26.604633 11.329560 -34.992574 -3.935925 -0.833562 13.392689 1.628731 5.467186 -13.200334 -0.627100 -0.000000 -8.169300 9.845855 -5.056870 -2.130640 6.383602 -24.728604 -4.994163 2.082971 -1.819094 23.556019 0.581337 11.065329 19.026124 4.450500 0.000000 -91.395800
4.244418 16.959026 -2.780226 -170.402770 50.367781 -158.131501 -9.532131 2.403529 1.696408 -26.317122 10.519692 -34.924953 -3.802649 -0.764900 14.443543 1.861644 6.362488 -14.239257 -0.844200 -0.000000 -2.909800 9.912578 -5.064580 -2.066006 6.055869 -24.298531 -5.011879 1.941243 -1.925728 25.203254 0.604629 13.073154 20.011243 5.497400 0.000000 -93.169800
4.360892 16.892799 -2.879824 -170.328646 49.742051 -158.116842 -9.491602 2.385723 1.835051 -25.960294 9.424622 -34.937908 -3.647284 -0.650282 15.993193 2.123609 7.310217 -15.485899 178.868401 0.000001 -1.739500 10.014131 -5.044592 -2.010230 5.633116 -23.903033 -5.188492 1.779874 -2.028355 27.029317 0.596733 15.069098 21.064990 6.621900 -0.000001 -94.514000
4.476855 16.825819 -2.977951 -170.375404 49.128740 -158.178134 -9.434142 2.369813 1.984703 -25.589803 8.167005 -35.049345 -3.482503 -0.491085 17.996018 2.392394 8.218304 -16.883888 178.517900 -0.000000 -5.596700 10.143491 -4.999655 -1.964838 5.123731 -23.547894 -5.498978 1.599221 -2.125505 29.009282 0.554585 16.894109 22.181730 7.759500 0.000000 -95.220600
4.591425 16.759109 -3.074630 -170.544069 48.525845 -158.338000 -9.363360 2.359202 2.122503 -25.267891 6.874364 -35.225546 -3.320963 -0.296928 20.336210 2.646278 9.015572 -18.361193 178.123000 0.000000 -8.602900 10.298093 -4.930776 -1.936556 4.509057 -23.258898 -5.908915 1.400976 -2.217505 31.117074 0.478234 18.410292 23.368100 8.845500 0.000000 -95.450400
4.703694 16.694088 -3.170082 -170.826135 47.931442 -158.603828 -9.284220 2.355105 2.231079 -25.038022 5.653732 -35.412268 -3.172850 -0.083593 22.851612 2.869087 9.660263 -19.847760 177.708800 -0.000000 -10.807400 10.471221 -4.839661 -1.927686 3.790101 -23.032408 -6.383213 1.188192 -2.305473 33.319186 0.370471 19.460129 24.613757 9.785300 0.000001 -95.120399
4.812631 16.632298 -3.264984 -171.193463 47.339904 -158.957296 -9.203996 2.356256 2.301489 -24.915266 4.579211 -35.555403 -3.044419 0.131140 25.369315 3.052634 10.140072 -21.286331 177.300700 0.000000 -12.303200 10.651281 -4.729150 -1.936028 2.995384 -22.841487 -6.897900 0.965118 -2.390989 35.581600 0.235646 19.890602 25.889737 10.461500 0.000001 -94.226499
4.917580 16.575287 -3.359601 -171.637176 46.746283 -159.390218 -9.124401 2.362179 2.332734 -24.908786 3.681731 -35.594143 -2.939371 0.329870 27.720952 3.197551 10.474359 -22.627829 176.918799 -0.000000 -13.177800 10.831726 -4.599811 -1.960177 2.141385 -22.669481 -7.438799 0.736682 -2.475318 37.871156 0.076013 19.599110 27.162759 10.767500 0.000000 -92.935100
5.017742 16.524496 -3.454658 -172.133230 46.142369 -159.875063 -9.048032 2.370745 2.329724 -25.008331 2.961810 -35.488827 -2.858046 0.499414 29.777310 3.309545 10.695221 -23.839463 176.575300 0.000000 -13.524999 11.004283 -4.452650 -1.995471 1.258775 -22.486902 -8.003684 0.508442 -2.559449 40.162710 -0.107575 18.525995 28.370816 10.607500 -0.000000 -91.165200
5.112547 16.480992 -3.550781 -172.652314 45.521628 -160.375838 -8.979183 2.378551 2.300607 -25.183773 2.401908 -35.226277 -2.798715 0.632232 31.459895 3.395251 10.833172 -24.902521 176.276299 0.000000 -13.440001 11.159553 -4.289847 -2.035172 0.393589 -22.259310 -8.597662 0.286072 -2.643742 42.432306 -0.315280 16.667494 29.431523 9.921200 0.000000 -88.859601
5.201531 16.445463 -3.648420 -173.177438 44.880213 -160.871225 -8.918512 2.383026 2.253196 -25.412616 1.970979 -34.792834 -2.758805 0.724044 32.721172 3.461513 10.919906 -25.803373 176.022900 0.000000 -13.032200 11.293772 -4.112475 -2.074403 -0.431488 -21.964737 -9.221520 0.075477 -2.728038 44.648643 -0.548627 14.098106 30.274730 8.717600 -0.000000 -86.406999
5.284204 16.418207 -3.748332 -173.664387 44.215970 -161.314425 -8.874898 2.379358 2.196126 -25.642569 1.640806 -34.215081 -2.734060 0.776236 33.569416 3.510803 10.966186 -26.541420 175.816500 -0.000000 -12.420800 11.396999 -3.926756 -2.105046 -1.157970 -21.564853 -9.886592 -0.119507 -2.812761 46.798082 -0.804484 10.946892 30.802467 7.056901 -0.000000 -83.576900
5.360309 16.399139 -3.850987 -174.086856 43.530767 -161.680060 -8.852894 2.364862 2.136253 -25.838261 1.379350 -33.511576 -2.720444 0.791710 34.030029 3.544627 10.980100 -27.118703 175.656700 -0.000000 -11.737300 11.465962 -3.738454 -2.122343 -1.758674 -21.039318 -10.598836 -0.296661 -2.898756 48.866730 -1.076671 7.415299 30.947614 5.075699 0.000000 -80.361800
5.430083 16.387877 -3.956459 -174.431105 42.829616 -161.956143 -8.855542 2.338088 2.078696 -25.971053 1.157187 -32.704544 -2.714071 0.775455 34.148861 3.563045 10.963601 -27.541307 175.543399 0.000000 -11.105300 11.500077 -3.553427 -2.122216 -2.217192 -20.373990 -11.358576 -0.456036 -2.985819 50.830843 -1.356646 3.729901 30.698191 2.950200 0.000000 -77.144300
5.493800 16.383791 -4.064958 -174.676507 42.116496 -162.123526 -8.888155 2.298044 2.028941 -26.008441 0.949237 -31.833500 -2.710599 0.734610 33.995932 3.564522 10.909811 -27.822564 175.476800 0.000000 -10.618300 11.497712 -3.379163 -2.100832 -2.511446 -19.558862 -12.173097 -0.600168 -3.073631 52.682058 -1.631435 0.117078 30.051857 0.861100 0.000000 -73.835700
5.552047 16.386134 -4.176432 -174.816727 41.394499 -162.178502 -8.952211 2.245398 1.990407 -25.935354 0.733939 -30.930451 -2.706128 0.676526 33.643184 3.548062 10.814504 -27.975377 175.456100 -0.000000 -10.321600 11.460889 -3.220239 -2.055454 -2.640675 -18.593005 -13.040479 -0.731971 -3.159806 54.400672 -1.889651 -3.235496 29.063548 -1.037300 0.000000 -70.738800
5.605744 16.394160 -4.290511 -174.859190 40.665034 -162.130025 -9.046491 2.182545 1.965177 -25.748461 0.496641 -30.023278 -2.697747 0.608733 33.162113 3.513072 10.674219 -28.013154 175.479400 -0.000000 -10.208700 11.393831 -3.079285 -1.985378 -2.618415 -17.487479 -13.956099 -0.854334 -3.242441 55.978647 -2.119185 -6.181740 27.778520 -2.631100 0.000000 -67.735600
5.656019 16.407070 -4.406795 -174.818463 39.927326 -161.990796 -9.167542 2.112653 1.954008 -25.454505 0.229110 -29.138149 -2.683570 0.538155 32.618371 3.459714 10.487032 -27.949435 175.543700 -0.000001 -10.230200 11.301587 -2.955940 -1.888805 -2.464892 -16.253840 -14.909076 -0.968422 -3.317121 57.392805 -2.313675 -8.651570 26.285928 -3.870100 0.000000 -65.174500
5.703861 16.424194 -4.524904 -174.712355 39.176636 -161.780285 -9.310218 2.040058 1.956029 -25.070622 -0.067279 -28.289692 -2.663050 0.470418 32.062595 3.388602 10.252258 -27.795912 175.645500 -0.000000 -10.312000 11.190183 -2.848873 -1.767459 -2.213563 -14.918277 -15.886534 -1.074348 -3.382141 58.637706 -2.465915 -10.604113 24.622971 -4.734900 -0.000000 -62.725500
5.750447 16.444983 -4.644316 -174.569682 38.408698 -161.524624 -9.466067 1.969470 1.968667 -24.625888 -0.386285 -27.481667 -2.637140 0.409009 31.524318 3.301667 9.974086 -27.560650 175.780300 0.000000 -10.373300 11.067016 -2.753574 -1.621555 -1.906213 -13.503516 -16.868050 -1.170030 -3.433841 59.687920 -2.577138 -12.068742 22.885177 -5.264299 0.000000 -60.772800
5.796693 16.468973 -4.764640 -174.414455 37.617909 -161.246795 -9.628520 1.905475 1.989127 -24.145312 -0.713123 -26.713545 -2.607790 0.355855 31.017734 3.200282 9.653605 -27.250242 175.944200 -0.000000 -10.340800 10.937764 -2.666904 -1.454594 -1.579358 -12.043142 -17.840276 -1.253540 -3.471995 60.540820 -2.646978 -13.081539 21.097887 -5.501200 -0.000001 -58.886400
5.843233 16.495849 -4.885601 -174.272089 36.799128 -160.970732 -9.789139 1.851993 2.013771 -23.661835 -1.034024 -25.971306 -2.577352 0.310342 30.533295 3.086973 9.298263 -26.865107 176.132500 -0.000001 -10.157500 10.808734 -2.583647 -1.269275 -1.273966 -10.566624 -18.786009 -1.322095 -3.495112 61.179171 -2.683099 -13.728148 19.347631 -5.525300 -0.000000 -57.329900
5.890357 16.525378 -5.007073 -174.155307 35.947210 -160.708837 -9.944527 1.811391 2.040221 -23.191914 -1.331385 -25.246217 -2.547878 0.270983 30.055457 2.963240 8.911112 -26.406093 176.341800 -0.000000 -9.786100 10.682323 -2.501135 -1.070092 -1.010333 -9.106334 -19.700320 -1.374267 -3.503796 61.605904 -2.692106 -14.090834 17.663206 -5.403300 0.000001 -55.765600
5.938193 16.557330 -5.129027 -174.077195 35.058645 -160.472535 -10.090567 1.785029 2.066628 -22.753799 -1.594801 -24.520640 -2.520997 0.234782 29.554668 2.831347 8.500411 -25.869496 176.567800 0.000000 -9.212000 10.561146 -2.415713 -0.861203 -0.807841 -7.690556 -20.578459 -1.409439 -3.497964 61.817910 -2.685585 -14.273106 16.114386 -5.211900 0.000000 -54.382700
5.986395 16.591495 -5.251619 -174.035161 34.129260 -160.261015 -10.228480 1.772396 2.092832 -22.347767 -1.815217 -23.786010 -2.497260 0.199013 29.006311 2.692327 8.068981 -25.254112 176.807601 0.000000 -8.439300 10.443857 -2.326440 -0.647547 -0.663877 -6.344747 -21.424512 -1.428443 -3.478554 61.827048 -2.672854 -14.360462 14.723393 -5.003400 0.000000 -53.022000
6.034575 16.627599 -5.374930 -174.026199 33.155859 -160.072374 -10.360139 1.772061 2.119671 -21.969397 -1.991654 -23.032272 -2.476466 0.161071 28.386938 2.547243 7.620658 -24.558292 177.057801 0.000001 -7.491500 10.328628 -2.232584 -0.433871 -0.570079 -5.089343 -22.244376 -1.432955 -3.446446 61.645594 -2.663156 -14.428939 13.513844 -4.818700 0.000000 -51.772100
6.082129 16.665331 -5.499125 -174.040376 32.135197 -159.899792 -10.489566 1.781681 2.149161 -21.605829 -2.128961 -22.255140 -2.457535 0.119291 27.682954 2.396656 7.156488 -23.783446 177.315800 -0.000000 -6.402500 10.212123 -2.134974 -0.224831 -0.508257 -3.939267 -23.045491 -1.424940 -3.402978 61.291910 -2.662552 -14.529552 12.478449 -4.677800 0.000000 -50.650800
6.128536 16.704257 -5.624313 -174.068156 31.064763 -159.736767 -10.620721 1.798670 2.184144 -21.241957 -2.239398 -21.452541 -2.438839 0.072956 26.889710 2.241210 6.677331 -22.933389 177.578000 0.000000 -5.226400 10.091083 -2.034962 -0.024405 -0.457710 -2.903351 -23.834798 -1.406163 -3.349628 60.784607 -2.674373 -14.690818 11.596065 -4.587400 -0.000001 -49.762600
6.173361 16.743959 -5.750491 -174.099110 29.942576 -159.576421 -10.757865 1.820295 2.227801 -20.859467 -2.339491 -20.627803 -2.418313 0.022616 26.015303 2.081574 6.182730 -22.016376 177.841100 0.000000 -4.020600 9.962068 -1.934655 0.164281 -0.395123 -1.983632 -24.618621 -1.377747 -3.288122 60.143718 -2.698729 -14.917720 10.823636 -4.540200 0.000000 -49.152901
6.216269 16.783964 -5.877659 -174.123014 28.767527 -159.412394 -10.905111 1.844324 2.283329 -20.439761 -2.447741 -19.789128 -2.393432 -0.029782 25.079366 1.918160 5.671564 -21.038733 178.102000 -0.000001 -2.795700 9.821879 -1.836894 0.338894 -0.297053 -1.176762 -25.402487 -1.339698 -3.220645 59.390931 -2.732202 -15.190187 10.092042 -4.514600 0.000000 -48.670200
6.257126 16.823802 -6.005725 -174.134493 27.541259 -159.241062 -11.063309 1.868901 2.353782 -19.972945 -2.587945 -18.944560 -2.361956 -0.082142 24.105850 1.753220 5.148787 -20.014374 178.355600 0.000000 -1.610900 9.669312 -1.743537 0.499656 -0.151127 -0.470925 -26.188798 -1.291855 -3.148553 58.538480 -2.771838 -15.486221 9.363465 -4.494700 0.000000 -48.440500
6.296130 16.863033 -6.134496 -174.132622 26.267647 -159.061226 -11.231998 1.893066 2.441324 -19.453034 -2.781230 -18.105825 -2.321891 -0.131554 23.124546 1.589012 4.620843 -18.953556 178.597600 -0.000000 -0.463200 9.504111 -1.656491 0.647809 0.050900 0.149661 -26.979526 -1.233460 -3.073508 57.599883 -2.812870 -15.770445 8.590103 -4.457700 -0.000000 -48.364900
